<svg width="54" height="54" viewBox="0 0 54 54" fill="none" xmlns="http://www.w3.org/2000/svg">
<circle cx="27" cy="27" r="27" fill="#FC80FF" fill-opacity="0.15"/>
<path d="M27.9821 16.0032C27.9821 15.7376 28.0876 15.4828 28.2754 15.295C28.4633 15.1071 28.718 15.0016 28.9837 15.0016C31.6393 15.0045 34.1853 16.0608 36.0631 17.9386C37.9409 19.8164 38.9971 22.3624 39 25.0181C39 25.2837 38.8945 25.5385 38.7066 25.7263C38.5188 25.9142 38.264 26.0197 37.9984 26.0197C37.7327 26.0197 37.478 25.9142 37.2901 25.7263C37.1023 25.5385 36.9967 25.2837 36.9967 25.0181C36.9944 22.8936 36.1494 20.8568 34.6471 19.3545C33.1449 17.8523 31.1082 17.0073 28.9837 17.0049C28.718 17.0049 28.4633 16.8994 28.2754 16.7115C28.0876 16.5237 27.9821 16.2689 27.9821 16.0032ZM28.9837 21.0115C30.0463 21.0115 31.0654 21.4336 31.8167 22.185C32.5681 22.9364 32.9902 23.9554 32.9902 25.0181C32.9902 25.2837 33.0957 25.5385 33.2836 25.7263C33.4714 25.9142 33.7262 26.0197 33.9918 26.0197C34.2575 26.0197 34.5123 25.9142 34.7001 25.7263C34.8879 25.5385 34.9935 25.2837 34.9935 25.0181C34.9919 23.4246 34.3582 21.8969 33.2315 20.7702C32.1048 19.6435 30.5771 19.0098 28.9837 19.0082C28.718 19.0082 28.4633 19.1137 28.2754 19.3016C28.0876 19.4894 27.9821 19.7442 27.9821 20.0098C27.9821 20.2755 28.0876 20.5303 28.2754 20.7181C28.4633 20.9059 28.718 21.0115 28.9837 21.0115ZM38.0915 31.7681C38.672 32.3502 38.9979 33.1387 38.9979 33.9607C38.9979 34.7828 38.672 35.5713 38.0915 36.1533L37.18 37.2041C28.9767 45.058 9.01418 25.1002 16.7468 16.8707L17.8986 15.869C18.4814 15.3048 19.2628 14.9926 20.0739 15.0001C20.885 15.0076 21.6605 15.3342 22.2327 15.9091C22.2638 15.9401 24.1198 18.3511 24.1198 18.3511C24.6705 18.9297 24.9771 19.6982 24.9758 20.497C24.9745 21.2958 24.6654 22.0634 24.1128 22.6401L22.9529 24.0985C23.5948 25.6582 24.5385 27.0757 25.7299 28.2695C26.9213 29.4633 28.3368 30.4099 29.8952 31.055L31.3626 29.8881C31.9394 29.3359 32.7068 29.0271 33.5054 29.026C34.3039 29.0249 35.0722 29.3315 35.6505 29.882C35.6505 29.882 38.0605 31.7371 38.0915 31.7681ZM36.7133 33.2245C36.7133 33.2245 34.3164 31.3805 34.2853 31.3495C34.079 31.1448 33.8001 31.03 33.5096 31.03C33.219 31.03 32.9401 31.1448 32.7338 31.3495C32.7068 31.3775 30.6865 32.9871 30.6865 32.9871C30.5503 33.0955 30.3883 33.1665 30.2163 33.1932C30.0444 33.2199 29.8685 33.2014 29.7059 33.1394C27.687 32.3877 25.8533 31.211 24.3289 29.6888C22.8046 28.1666 21.6251 26.3346 20.8705 24.3169C20.8036 24.1521 20.7818 23.9724 20.8073 23.7964C20.8328 23.6203 20.9048 23.4543 21.0157 23.3153C21.0157 23.3153 22.6253 21.2939 22.6524 21.2679C22.857 21.0615 22.9718 20.7827 22.9718 20.4921C22.9718 20.2015 22.857 19.9227 22.6524 19.7163C22.6213 19.6863 20.7773 17.2874 20.7773 17.2874C20.5679 17.0996 20.2945 16.999 20.0133 17.0062C19.7321 17.0135 19.4643 17.1281 19.2649 17.3264L18.113 18.3281C12.4618 25.1232 29.761 41.4631 35.7157 35.8358L36.6281 34.7841C36.842 34.586 36.9704 34.3126 36.9863 34.0215C37.0022 33.7305 36.9043 33.4447 36.7133 33.2245Z" fill="#FC80FF"/>
</svg>
