<svg width="109" height="30" viewBox="0 0 109 30" fill="none" xmlns="http://www.w3.org/2000/svg">
<path d="M14.6 3.14C16.22 3.92 17.48 5.09 18.41 6.65C19.34 8.21 19.82 10.16 19.82 12.5C19.82 16.1 18.83 18.74 16.85 20.45C14.87 22.16 12.29 23 9.07999 23H0.679993V2H9.07999C11.12 2 12.98 2.39 14.6 3.14ZM8.92999 19.4C10.79 19.4 12.29 18.83 13.4 17.69C14.51 16.55 15.08 14.81 15.08 12.5C15.08 10.13 14.51 8.39 13.4 7.28C12.29 6.17 10.79 5.6 8.89999 5.6H5.29999V19.4H8.92999Z" fill="black"/>
<path d="M22.7518 4.73C22.2718 4.25 22.0318 3.68 22.0318 2.99C22.0318 2.33 22.2718 1.73 22.7518 1.25C23.2318 0.77 23.8318 0.5 24.5218 0.5C25.2118 0.5 25.8118 0.740001 26.2918 1.22C26.7718 1.7 27.0418 2.3 27.0418 2.99C27.0418 3.68 26.7718 4.25 26.2918 4.73C25.8118 5.21 25.2118 5.45 24.5218 5.45C23.8318 5.45 23.2318 5.21 22.7518 4.73ZM22.4218 23V7.52H26.6818V23H22.4218Z" fill="black"/>
<path d="M45.6619 8.15L40.1719 7.19L40.1419 7.4C41.3119 7.7 42.2719 8.27 42.9919 9.11C43.7119 9.95 44.1019 10.94 44.1019 12.11C44.1019 13.73 43.4719 14.99 42.2719 15.92C41.0419 16.85 39.3619 17.3 37.2019 17.3C36.3619 17.3 35.5519 17.24 34.8019 17.06C34.3219 17.21 33.9919 17.39 33.8119 17.57C33.6319 17.78 33.5419 18.05 33.5419 18.35C33.5419 18.74 33.6919 19.04 34.0519 19.28C34.3819 19.52 34.8619 19.61 35.4619 19.61H39.7219C41.6419 19.61 43.0819 20 44.0719 20.72C45.0619 21.47 45.5719 22.7 45.5719 24.38C45.5719 26.06 44.8819 27.29 43.5019 28.13C42.1219 28.97 40.1119 29.39 37.4419 29.39C34.5619 29.39 32.5219 29.12 31.3219 28.52C30.0919 27.92 29.4919 27.02 29.4919 25.82C29.4919 24.14 30.8719 23.15 33.6919 22.91V22.79C32.4919 22.67 31.5619 22.34 30.9319 21.8C30.3019 21.26 30.0019 20.63 30.0019 19.88C30.0019 18.95 30.3619 18.26 31.0819 17.78C31.8019 17.3 32.7919 17.06 34.0519 17V16.88C32.8219 16.52 31.8919 15.92 31.2319 15.08C30.5719 14.27 30.2719 13.28 30.2719 12.11C30.2719 10.76 30.7519 9.65 31.7119 8.78C32.6719 7.91 34.2919 7.25 36.6319 6.83C39.6019 6.29 42.6019 5.66 45.6619 4.97V8.15ZM39.3919 10.61C38.8519 10.22 38.1319 10.01 37.2019 10.01C36.2419 10.01 35.5219 10.22 35.0119 10.61C34.4719 11 34.2319 11.51 34.2319 12.11C34.2319 12.77 34.4719 13.31 35.0119 13.73C35.5219 14.15 36.2419 14.33 37.2019 14.33C38.1319 14.33 38.8519 14.15 39.3919 13.73C39.9019 13.31 40.1719 12.77 40.1719 12.11C40.1719 11.51 39.9019 11 39.3919 10.61ZM34.5619 22.82C33.6019 23.15 33.1519 23.72 33.1519 24.5C33.1519 25.1 33.4819 25.58 34.1719 25.88C34.8319 26.21 35.9419 26.36 37.4419 26.36C39.0019 26.36 40.0819 26.21 40.7419 25.91C41.4019 25.61 41.7319 25.1 41.7319 24.44C41.7319 23.87 41.5219 23.45 41.1619 23.18C40.7719 22.94 40.1719 22.79 39.3319 22.79L34.5619 22.82Z" fill="black"/>
<path d="M48.4159 4.73C47.9359 4.25 47.6959 3.68 47.6959 2.99C47.6959 2.33 47.9359 1.73 48.4159 1.25C48.8959 0.77 49.4959 0.5 50.1859 0.5C50.8759 0.5 51.4759 0.740001 51.9559 1.22C52.4359 1.7 52.7059 2.3 52.7059 2.99C52.7059 3.68 52.4359 4.25 51.9559 4.73C51.4759 5.21 50.8759 5.45 50.1859 5.45C49.4959 5.45 48.8959 5.21 48.4159 4.73ZM48.0859 23V7.52H52.3459V23H48.0859Z" fill="black"/>
<path d="M66.406 9V11.4H61.986V23H58.926V11.4H54.446V9H66.406Z" fill="black"/>
<path d="M77.8055 18.42H69.9255C69.9255 19.28 70.2055 19.96 70.7255 20.44C71.2455 20.94 71.9055 21.18 72.7255 21.18C73.3655 21.18 73.9055 21.02 74.3455 20.7C74.7855 20.38 75.0855 19.94 75.2255 19.42H77.7055C77.5855 20.26 77.2855 20.98 76.7855 21.56C76.2655 22.16 75.6655 22.6 74.9455 22.88C74.2255 23.18 73.4855 23.32 72.7255 23.32C71.0055 23.32 69.6655 22.84 68.6855 21.88C67.6855 20.92 67.2055 19.56 67.2055 17.8C67.2055 16.72 67.4255 15.78 67.8655 14.94C68.3055 14.12 68.9255 13.48 69.7255 13.04C70.5255 12.6 71.4655 12.36 72.5455 12.36C73.6055 12.36 74.5455 12.6 75.3455 13.06C76.1455 13.54 76.7455 14.16 77.1655 14.96C77.5855 15.76 77.8055 16.64 77.8055 17.6V18.42ZM70.7055 15.12C70.2255 15.54 69.9655 16.12 69.9255 16.88H75.0055C74.9455 16.14 74.6855 15.56 74.2255 15.14C73.7655 14.72 73.1855 14.5 72.4855 14.5C71.7655 14.5 71.1655 14.72 70.7055 15.12Z" fill="black"/>
<path d="M88.0048 12.84C88.5848 13.16 89.0448 13.6 89.4048 14.2C89.7448 14.8 89.9248 15.52 89.9248 16.34V23H87.0648V17.2C87.0648 16.38 86.8448 15.74 86.4448 15.28C86.0248 14.84 85.4448 14.6 84.7248 14.6C83.9248 14.6 83.3048 14.88 82.8648 15.4C82.4248 15.92 82.2048 16.66 82.2048 17.6V23H79.3448V12.68H82.1048L82.2048 15.82H82.3248C82.4648 14.78 82.8848 13.94 83.6048 13.3C84.3248 12.68 85.1448 12.36 86.1048 12.36C86.7848 12.36 87.4248 12.52 88.0048 12.84Z" fill="black"/>
<path d="M91.3866 23V21.42L97.1466 14.82L97.1066 14.72C96.3266 14.8 95.1866 14.84 93.7066 14.84H91.7066V12.68H100.727V14.46L95.3066 20.84L95.3466 20.96C96.3866 20.88 97.4466 20.84 98.5266 20.84H100.907V23H91.3866Z" fill="black"/>
<path d="M103.389 22.7C102.849 22.19 102.609 21.53 102.609 20.72C102.609 19.97 102.849 19.34 103.389 18.83C103.899 18.35 104.559 18.08 105.339 18.08C106.119 18.08 106.779 18.35 107.289 18.83C107.799 19.34 108.069 19.97 108.069 20.72C108.069 21.53 107.799 22.19 107.289 22.7C106.779 23.21 106.119 23.45 105.339 23.45C104.559 23.45 103.899 23.21 103.389 22.7Z" fill="#FC80FF"/>
</svg>
