<svg width="105" height="105" viewBox="0 0 105 105" fill="none" xmlns="http://www.w3.org/2000/svg">
<rect width="105" height="105" rx="52.5" transform="matrix(1 0 0 -1 0 105)" fill="url(#paint0_linear_21_182)"/>
<g clip-path="url(#clip0_21_182)">
<path d="M54.2265 18.0379L55.3623 10L58.1522 10.3966C58.9093 10.4717 59.629 10.7629 60.2255 11.2354C60.7437 11.6597 61.1255 12.2273 61.3232 12.8674C61.5221 13.5426 61.5715 14.2531 61.468 14.9493C61.379 15.6884 61.1179 16.3962 60.7057 17.016C60.3228 17.5566 59.7941 17.9772 59.1812 18.2285C58.5006 18.4853 57.764 18.5564 57.0469 18.4344L54.2265 18.0379ZM60.4313 14.8044C60.525 14.252 60.4884 13.6854 60.3246 13.1496C60.1794 12.6687 59.8989 12.2398 59.5166 11.9141C59.076 11.57 58.5479 11.356 57.9921 11.2964L56.2236 11.0524L55.3394 17.2753L57.1079 17.5269C57.656 17.6247 58.2208 17.5583 58.7315 17.3363C59.1906 17.1212 59.5792 16.78 59.852 16.3525C60.1681 15.8876 60.3788 15.3593 60.4694 14.8044H60.4313Z" fill="white"/>
<path d="M63.2136 19.8529L65.8739 12.1811L66.8496 12.5166L64.1893 20.1884L63.2136 19.8529Z" fill="white"/>
<path d="M69.7538 22.8728C69.301 22.6175 68.9166 22.2564 68.6333 21.8204C68.3513 21.3898 68.157 20.9078 68.0616 20.4019C67.9729 19.8974 67.9729 19.3813 68.0616 18.8767C68.1385 18.3598 68.3145 17.8626 68.5799 17.4125C68.8445 16.95 69.1936 16.5412 69.609 16.2076C70.0072 15.8755 70.4616 15.6172 70.9506 15.445C71.4408 15.2801 71.9603 15.2203 72.4751 15.2696C72.9926 15.3136 73.4932 15.4753 73.9387 15.7424C74.5398 16.061 75.0371 16.5454 75.3717 17.138C75.643 17.6591 75.7669 18.2445 75.73 18.831L74.7695 18.9072C74.8119 18.4209 74.7027 17.9334 74.457 17.5117C74.2024 17.1041 73.8483 16.7682 73.4279 16.5355C73.0934 16.3393 72.7174 16.2243 72.3303 16.2C71.9524 16.183 71.5754 16.2481 71.225 16.3906C70.8601 16.5316 70.5242 16.7384 70.2341 17.0007C69.9335 17.2697 69.6764 17.5835 69.4718 17.9311C69.2633 18.2959 69.1165 18.6928 69.0373 19.1055C68.9603 19.4958 68.9603 19.8973 69.0373 20.2876C69.1113 20.6636 69.259 21.0212 69.4718 21.3399C69.6856 21.6554 69.9701 21.9165 70.3027 22.1025C70.7058 22.3361 71.1631 22.4597 71.629 22.461C72.1705 22.4559 72.705 22.3391 73.1993 22.1178L72.6657 23.0405C72.1999 23.2376 71.6951 23.325 71.1902 23.2959C70.6853 23.2668 70.1939 23.1221 69.7538 22.8728ZM73.5651 21.2332L72.0406 20.3562L72.4294 19.6851L74.7162 20.9968L72.6657 24.4971L71.9034 24.0624L73.5651 21.2332Z" fill="white"/>
<path d="M74.6018 26.2359L79.9377 20.135L80.6999 20.8137L75.3641 26.9146L74.6018 26.2359Z" fill="white"/>
<path d="M86.8514 28.9584L85.0906 26.7773L79.526 31.3072L78.8781 30.5065L84.4808 25.9766L82.7199 23.7955L83.4288 23.2236L87.5984 28.3788L86.8514 28.9584Z" fill="white"/>
<path d="M85.5098 39.8713L84.6866 40.2678L82.2931 35.2956L89.6032 31.7648L91.9586 36.6378L91.1277 37.0344L89.2297 33.0917L86.859 34.2356L88.5132 37.6673L87.7509 38.041L86.0968 34.6093L83.5737 35.8294L85.5098 39.8713Z" fill="white"/>
<path d="M91.7604 42.243L85.6623 43.4402L85.4641 42.4336L93.4298 40.8703L93.5975 41.7168L88.3226 47.8176L94.5427 46.5898L94.7409 47.6041L86.7828 49.1674L86.6075 48.2447L91.7604 42.243Z" fill="white"/>
<path d="M87.7051 51.4476L93.8033 57.0756L94.1234 51.9433L95.0381 52.0043L94.6417 58.3263L93.8795 58.2805L87.7814 52.744L87.4612 57.8764L86.5465 57.823L86.9505 51.3942L87.7051 51.4476Z" fill="white"/>
<path d="M78.0015 79.2522L78.6037 79.9462L76.0577 82.1577L75.4556 81.4714L78.0015 79.2522Z" fill="white"/>
<path d="M52.5267 86.9087L51.8178 95L49.0355 94.7788C48.2715 94.7295 47.5369 94.4651 46.9164 94.0162C46.3781 93.6206 45.9695 93.0738 45.7425 92.4453C45.5043 91.7814 45.4158 91.0731 45.4834 90.371C45.533 89.6277 45.7633 88.9078 46.1542 88.2738C46.5077 87.7045 47.0224 87.2532 47.633 86.9774C48.299 86.6863 49.0298 86.5759 49.7521 86.6571L52.5267 86.9087ZM46.4972 90.4701C46.4385 91.0271 46.5063 91.5902 46.6954 92.1173C46.866 92.5906 47.1706 93.0039 47.572 93.307C48.0181 93.6283 48.5475 93.8136 49.0965 93.8408L50.8726 94.001L51.4214 87.7324L49.6453 87.5798C49.0938 87.5061 48.5329 87.6018 48.037 87.8544C47.587 88.0911 47.2161 88.4542 46.9698 88.8991C46.7002 89.3823 46.5389 89.9184 46.4972 90.4701Z" fill="white"/>
<path d="M43.4405 85.5742L41.1918 93.3833L40.2085 93.0935L42.4496 85.292L43.4405 85.5742Z" fill="white"/>
<path d="M36.7631 82.9127C37.2264 83.1435 37.6286 83.4806 37.937 83.8965C38.2391 84.3138 38.459 84.7848 38.5849 85.2844C38.7057 85.7832 38.7418 86.2988 38.6916 86.8096C38.6414 87.3292 38.4913 87.8342 38.2495 88.2967C38.011 88.7726 37.6852 89.1995 37.289 89.555C36.9062 89.9 36.4648 90.1738 35.9856 90.3634C35.5142 90.5444 35.0115 90.63 34.5068 90.615C33.9875 90.5987 33.4788 90.463 33.0204 90.2185C32.3943 89.9371 31.8643 89.4784 31.4958 88.8992C31.1976 88.3938 31.0446 87.8159 31.0537 87.2291L32.0066 87.0994C31.9879 87.5879 32.1211 88.0701 32.3877 88.4797C32.6557 88.8734 33.0206 89.1912 33.4472 89.4025C33.7897 89.5858 34.1717 89.6826 34.5601 89.6847C34.9389 89.68 35.3127 89.5969 35.6578 89.4406C36.0127 89.2785 36.3354 89.0538 36.6106 88.7771C37.1971 88.1921 37.577 87.4318 37.693 86.6114C37.7394 86.2164 37.7162 85.8163 37.6244 85.4293C37.5268 85.0599 37.3585 84.7128 37.129 84.4074C36.9018 84.0897 36.6044 83.8288 36.26 83.6448C35.8452 83.4341 35.3831 83.3343 34.9184 83.355C34.3871 83.3958 33.8691 83.5409 33.3939 83.7821L33.8741 82.8364C34.3296 82.628 34.8267 82.5265 35.3274 82.5397C35.8281 82.5529 36.3192 82.6805 36.7631 82.9127ZM33.028 84.7506L34.5906 85.5132L34.2324 86.2072L31.8998 85.0175L33.7445 81.4104L34.5068 81.8069L33.028 84.7506Z" fill="white"/>
<path d="M31.755 79.8165L26.7545 86.2148L25.9389 85.5818L30.947 79.1836L31.755 79.8165Z" fill="white"/>
<path d="M19.3835 77.7499L21.251 79.8318L26.5869 75.0121L27.2729 75.7747L21.9371 80.5944L23.8046 82.6839L23.1262 83.294L18.6898 78.3599L19.3835 77.7499Z" fill="white"/>
<path d="M20.1305 66.7607L20.8927 66.3184L23.553 71.1533L16.4411 75.0655L13.8342 70.3221L14.5964 69.8874L16.7079 73.7004L18.9947 72.4345L17.1576 69.0943L17.9199 68.6825L19.7569 72.0151L22.2114 70.6653L20.1305 66.7607Z" fill="white"/>
<path d="M13.758 64.7246L19.7951 63.1993L20.0467 64.1984L12.1725 66.1811L11.959 65.3423L16.8985 58.9745L10.7547 60.4997L10.5031 59.5007L18.362 57.5179L18.5984 58.4254L13.758 64.7246Z" fill="white"/>
<path d="M17.3101 55.3216L10.9986 49.9834L10.9223 55.1234H10.0076L10.1067 48.7861H10.9071L17.2263 54.0328L17.3101 48.8929H18.2248L18.1181 55.3293L17.3101 55.3216Z" fill="white"/>
<path d="M25.5578 27.0366L24.9251 26.3808L27.3491 24.0319L27.9818 24.6954L25.5578 27.0366Z" fill="white"/>
</g>
<path d="M59 49.0359C61.6667 50.5755 63 51.3453 63 52.5C63 53.6547 61.6667 54.4245 59 55.9641L52.25 59.8612C49.5833 61.4008 48.25 62.1706 47.25 61.5933C46.25 61.0159 46.25 59.4763 46.25 56.3971L46.25 48.6029C46.25 45.5237 46.25 43.9841 47.25 43.4067C48.25 42.8294 49.5833 43.5992 52.25 45.1388L59 49.0359Z" fill="white"/>
<defs>
<linearGradient id="paint0_linear_21_182" x1="0" y1="105" x2="105" y2="0" gradientUnits="userSpaceOnUse">
<stop stop-color="#FC80FF"/>
<stop offset="1" stop-color="#DE80FF"/>
</linearGradient>
<clipPath id="clip0_21_182">
<rect width="85" height="85" fill="white" transform="translate(10 10)"/>
</clipPath>
</defs>
</svg>
